HIERARCHY
ROOT pelvis
{
  OFFSET 0 100 0
  CHANNELS 6 Xposition Yposition Zposition Zrotation Xrotation Yrotation
  JOINT pelvis_right_femur
  {
    OFFSET -10.78128 -3.44521 -0.5502486
    CHANNELS 3 Zrotation Xrotation Yrotation
    JOINT right_femur_tibia
    {
      OFFSET -0.8047443 -44.0398 -0.1307829
      CHANNELS 3 Zrotation Xrotation Yrotation
      JOINT right_tibia_foot
      {
        OFFSET 3.006224 -47.83518 -5
        CHANNELS 3 Zrotation Xrotation Yrotation
        End Site
        {
          OFFSET 0 -5 15
        }
      }
    }
  }
  JOINT pelvis_left_femur
  {
    OFFSET 10.78128 -3.44521 -0.5502486
    CHANNELS 3 Zrotation Xrotation Yrotation
    JOINT left_femur_tibia
    {
      OFFSET 0.8047443 -44.0398 -0.1307829
      CHANNELS 3 Zrotation Xrotation Yrotation
      JOINT left_tibia_foot
      {
        OFFSET -4.370144 -48.10324 -4.275266
        CHANNELS 3 Zrotation Xrotation Yrotation
        End Site
        {
          OFFSET 0 -5 15
        }
      }
    }
  }
  JOINT pelvis_spine1
  {
    OFFSET 0 6.468898 -3.129235
    CHANNELS 3 Zrotation Xrotation Yrotation
    JOINT spine1
    {
      OFFSET 0 23.15396 4.99043
      CHANNELS 3 Zrotation Xrotation Yrotation
      JOINT spine2
      {
        OFFSET 0 20.79997 -5.064912
        CHANNELS 3 Zrotation Xrotation Yrotation
        JOINT neck
        {
          OFFSET 0 14.38658 9.616178
          CHANNELS 3 Zrotation Xrotation Yrotation
          End Site
          {
            OFFSET 0 20 0
          }
        }
      }
      JOINT right_manubrium
      {
        OFFSET -5.722621 16.35077 3.967754
        CHANNELS 3 Zrotation Xrotation Yrotation
        JOINT right_clavicle
        {
          OFFSET -13.16364 1.694482 -4.693211
          CHANNELS 3 Zrotation Xrotation Yrotation
          JOINT right_humerus
          {
            OFFSET -28.5034 -0.3100689 -2.792744
            CHANNELS 3 Zrotation Xrotation Yrotation
            JOINT right_radius
            {
              OFFSET -25.15693 0.02248979 -1.271978
              CHANNELS 3 Zrotation Xrotation Yrotation
              End Site
              {
                OFFSET -15 0 0
              }
            }
          }
        }
      }
      JOINT left_manubrium
      {
        OFFSET 5.722621 16.35077 3.967754
        CHANNELS 3 Zrotation Xrotation Yrotation
        JOINT left_clavicle
        {
          OFFSET 13.16364 1.694482 -4.693211
          CHANNELS 3 Zrotation Xrotation Yrotation
          JOINT left_humerus
          {
            OFFSET 29.39168 -1.063119 -2.237045
            CHANNELS 3 Zrotation Xrotation Yrotation
            JOINT left_radius
            {
              OFFSET 24.59957 -0.9528479 0.9047498
              CHANNELS 3 Zrotation Xrotation Yrotation
              End Site
              {
                OFFSET 15 -0 -0
              }
            }
          }
        }
      }
    }
  }
}
MOTION
Frames: 11
Frame Time: 0.0416666666667
0 103.5113 0 1.440018 1.312927 0.2113461 3.306501 -10.71196 13.09208 -0 38.44734 -0 -2.14405 -24.33098 -3.500944 -7.428936 2.708372 -21.99024 -0 8.320098 -0 9.546809 -12.88112 26.30338 -4.276409 -4.288242 6.143686 2.997006 8.833588 -7.475522 0.8378791 21.25637 6.820137 1.773088 -24.79036 9.882141 8.150727 -20.37173 12.06899 82.58328 40.11829 -16.99376 -0 0 18.48172 -5.623872 11.39974 5.526747 4.023939 -17.09137 0.3155483 -94.83407 28.02271 25.77617 0 0 -17.30294 5.681733 13.82943 9.041262
0.3888708 105.3001 1.779568 1.101007 0.863395 0.4674425 3.641713 -12.36959 12.30547 -0 38.62742 -0 -3.09127 -21.9351 -3.600298 -7.144408 4.402312 -21.74919 -0 7.762888 -0 9.419123 -13.6338 26.12857 -4.016173 -4.043471 5.666595 3.004792 9.037947 -7.587365 0.8914427 21.44917 6.870028 1.888214 -25.03278 9.915026 7.502664 -20.33126 12.00763 83.54899 38.7167 -17.50815 -0 0 17.66321 -6.093487 10.73967 5.517554 4.239785 -17.67608 -0.1079651 -94.50218 27.52897 24.96624 0 0 -16.90165 6.37805 14.30956 8.029754
0.6658306 106.7084 6.644351 -2.0259 2.692649 1.208057 7.33392 -25.15424 8.26126 -0 20.37456 -0 -5.227788 -8.901758 -3.152048 -4.416286 8.693434 -14.72472 -0 17.49566 -0 -3.753319 -18.7402 15.03609 -0.4834266 -0.9456214 4.039741 2.691759 8.116103 -7.641545 1.651827 19.93458 7.454621 2.513802 -25.90699 10.48719 3.794267 -17.67676 10.06622 86.99997 31.53248 -20.30715 -0 0 13.70239 -9.012778 11.61907 6.63467 6.411877 -20.05486 -0.1023919 -92.60579 29.42712 20.95811 0 0 -22.51099 3.078673 11.362 13.58704
0.7999165 108.0569 11.33527 -2.831268 2.289626 1.797167 8.459401 -31.61266 7.757994 -0 21.67327 -0 -8.28758 -4.004499 -3.443624 -4.207947 15.36714 -16.11503 -0 16.12596 -0 -5.255596 -21.78493 14.47417 -0.009188324 -0.5268713 2.813897 2.799143 8.026818 -8.215879 1.98258 20.47223 7.355351 3.186528 -26.52063 10.37457 3.029205 -17.09803 9.653216 89.28395 29.50879 -22.43431 -0 0 11.49983 -7.343506 8.536599 4.765652 6.952812 -21.46419 -0.8985039 -93.27726 31.45492 20.04973 0 0 -21.55299 2.830776 13.5888 13.82001
0.7252949 109.4058 15.31427 -3.711114 1.727738 2.268767 9.195857 -44.54139 4.707643 -0 22.32008 -0 -13.66523 6.919525 -1.761686 -3.894148 26.99812 -20.08763 -0 9.600524 -0 -6.669737 -29.07935 14.50844 0.3758266 0.4434505 0.9283649 2.514071 8.126383 -8.656371 2.554411 21.60703 7.880614 5.343925 -27.5626 10.4553 2.282365 -16.20646 9.378995 92.91741 27.6314 -25.62128 -0 0 7.630324 -6.090917 3.705713 1.571275 8.688126 -24.73711 -2.982716 -94.55727 34.04156 18.48301 0 0 -20.25197 3.913396 19.65025 11.96603
0.6995185 110.8848 18.9987 -3.779832 2.404489 2.833703 9.133732 -47.43584 3.566168 -0 22.24048 -0 -14.66873 9.60245 -0.2853092 -4.043675 28.27101 -21.55604 -0 7.579174 -0 -6.764537 -31.06181 14.75219 0.254284 0.8284424 0.8884772 2.31162 8.005682 -8.335768 2.606556 21.75813 8.439569 6.214959 -28.15437 10.83728 3.026717 -15.96312 9.523039 93.09789 29.37368 -25.93411 -0 0 6.965495 -5.650472 3.371578 0.7109851 9.280032 -25.30424 -3.194596 -95.73685 34.49889 19.3643 0 0 -19.66697 4.916515 21.75117 10.85241
0.8428923 112.428 22.30881 -3.312163 4.01972 3.553638 8.775574 -47.58173 3.013916 -0 21.50246 -0 -13.89429 9.586564 1.330896 -4.919129 25.80253 -22.73549 -0 5.366756 -0 -5.477858 -32.2513 16.12055 -0.4977648 1.06023 1.785444 2.079622 7.709595 -7.58687 2.529969 21.53749 9.146325 6.938884 -28.69048 11.43673 4.799847 -15.91581 9.875414 91.94676 33.8137 -25.36074 -0 0 7.503987 -4.89888 4.542913 0.2526724 9.755928 -25.00787 -2.633139 -97.22943 34.56594 21.4015 0 0 -19.85124 6.203677 22.97078 9.666882
1.211065 113.8658 25.40589 -2.207327 5.897111 4.350989 7.881843 -44.74217 2.853221 -0 19.09248 -0 -11.3535 7.106732 2.594517 -6.402887 20.30175 -22.70573 -0 3.811085 -0 -2.880063 -32.1435 18.22289 -1.863225 1.02442 3.398177 1.897283 7.447915 -6.763671 2.291999 20.9727 9.610141 7.243893 -28.65596 11.6786 6.930989 -16.03026 10.37245 89.9103 39.47941 -24.11086 -0 0 8.922582 -4.458047 6.762225 0.4067393 10.03824 -24.1787 -1.605916 -97.42725 33.70253 22.63202 0 0 -21.62627 7.78055 22.26379 7.991993
1.858648 115.003 28.52888 -0.3754125 8.00826 5.139959 6.435239 -38.93077 3.25348 -0 14.16195 -0 -6.964334 2.303673 3.638481 -8.262323 11.82267 -21.39831 -0 3.172711 -0 0.9222322 -30.58668 20.78494 -3.874054 0.5642591 5.763877 1.798176 7.351742 -6.055188 1.856143 19.93703 9.710569 7.122428 -27.88471 11.2769 9.293332 -16.37648 11.06412 86.96269 46.06978 -22.28155 -0 0 11.31129 -4.599784 9.943118 1.214747 10.14062 -23.02718 -0.2305478 -95.8543 31.79416 22.63484 0 0 -25.68582 9.325383 19.12409 6.042176
2.83432 115.7177 31.98667 1.690694 10.20514 5.879502 4.85467 -31.59808 4.386429 -0 7.414438 -0 -1.611374 -3.608202 4.703964 -9.770412 2.093546 -19.06542 -0 4.196621 -0 4.896558 -27.60925 22.67574 -6.011472 -0.4020691 8.395357 1.878796 7.550616 -5.783808 1.212077 18.43772 9.483922 6.685708 -26.63702 10.25299 11.52058 -16.91466 11.91189 83.57116 52.46093 -20.34368 -0 0 14.24886 -5.479583 13.63435 2.5722 10.02158 -21.93507 1.211601 -92.8239 28.84933 21.62746 0 0 -31.56785 10.47941 13.94056 4.169553
4.155173 116.0279 35.99945 3.285478 12.19939 6.645009 3.561716 -25.0429 5.839833 -0 0.7599675 -0 3.267331 -8.755548 5.8379 -10.40439 -6.27394 -16.26142 -0 6.875661 -0 7.943017 -24.02283 23.08276 -7.616286 -1.640121 10.58988 2.135791 8.015657 -6.038433 0.4576547 16.77843 9.16193 6.197632 -25.42265 9.002317 13.25147 -17.47132 12.77459 80.65654 57.50663 -18.99073 -0 0 16.93302 -6.954784 17.13604 4.126976 9.738456 -21.26484 2.355251 -89.45177 25.33697 20.3617 0 0 -37.69044 11.18336 8.318727 2.539865
